<svg width="21.0000072px" height="20.9998417px" viewBox="0 0 21.0000072 20.9998417" version="1.1"
    xmlns="http://www.w3.org/2000/svg" xmlns:xlink="http://www.w3.org/1999/xlink">
    <g id="Icons" stroke="none" stroke-width="1" fill="none" fill-rule="evenodd">
        <path
            d="M5.3865,10.0356965 L5.5215,10.1031965 L9.162,12.2256965 C9.51231718,12.4313311 9.74563452,12.7896399 9.792,13.1931965 L9.801,13.3461965 L9.801,17.5836965 C9.801,17.9946965 9.6075,18.3786965 9.288,18.6186965 L9.162,18.7026965 L5.5185,20.8281965 C5.17363518,21.0294261 4.75342999,21.0539473 4.3875,20.8941965 L4.2525,20.8266965 L0.6345,18.7041965 C0.285722763,18.4981873 0.0536461775,18.1406339 0.0075,17.7381965 L0,17.5866965 L0,13.3461965 C0,12.9351965 0.192,12.5526965 0.51,12.3111965 L0.636,12.2271965 L4.2555,10.1046965 C4.59987647,9.90249276 5.02009695,9.87685597 5.3865,10.0356965 Z M16.6125,10.0371965 L16.7475,10.1061965 L20.3655,12.2271965 C20.7137033,12.4335463 20.9451883,12.7910434 20.991,13.1931965 L21.0000036,13.3461965 L21.0000036,17.5866965 C21.0009579,17.9924096 20.8123017,18.3752707 20.49,18.6216965 L20.364,18.7056965 L16.746,20.8266965 C16.4009159,21.0301491 15.9792058,21.0558087 15.612,20.8956965 L15.4785,20.8266965 L11.8605,18.7056965 C11.5117228,18.4996873 11.2796462,18.1421339 11.2335,17.7396965 L11.2245,17.5866965 L11.2245,13.3461965 C11.2245,12.9351965 11.4165,12.5526965 11.7345,12.3111965 L11.8605,12.2271965 L15.4785,10.1061965 C15.7788172,9.92942839 16.1392556,9.88593659 16.473,9.9861965 L16.6125,10.0371965 L16.6125,10.0371965 Z M4.9125,11.3211965 L1.3425,13.3926965 L1.3425,17.5386965 L4.83,19.6446965 L8.46,17.5371965 L8.46,13.3926965 L4.911,11.3211965 L4.9125,11.3211965 Z M16.1115,11.3211965 L12.5685,13.3926965 L12.5685,17.5536965 L16.029,19.6446965 L19.659,17.5371965 L19.659,13.3926965 L16.113,11.3226965 L16.1115,11.3211965 Z M11.001,0.105696499 L11.136,0.173196499 L14.754,2.2956965 C15.1022033,2.50204629 15.3336883,2.85954345 15.3795,3.2616965 L15.3885036,3.4131965 L15.3885036,7.6551965 C15.3894579,8.0609096 15.2008017,8.44377074 14.8785,8.6901965 L14.754,8.7726965 L11.136,10.8951965 C10.7905972,11.0979209 10.3690125,11.1230153 10.002,10.9626965 L9.867,10.8951965 L6.249,8.7726965 C5.90079668,8.56634671 5.66931171,8.20884955 5.6235,7.8066965 L5.6145,7.6551965 L5.6145,3.4131965 C5.6145,3.0036965 5.805,2.6211965 6.1245,2.3781965 L6.249,2.2956965 L9.867,0.173196499 C10.1677212,-0.00399996209 10.5287973,-0.0475031114 10.863,0.0531964994 L11.001,0.105696499 Z M10.5,1.3881965 L6.954,3.4611965 L6.954,7.6071965 L10.443,9.7131965 L14.0445,7.6056965 L14.0445,3.4611965 L10.5,1.3881965 Z"
            id="clusters" fill="currentColor" fill-rule="nonzero"></path>
    </g>
</svg>