<svg width="19px" height="12px" fill="currentColor" viewBox="0 0 20 12" version="1.1" xmlns="http://www.w3.org/2000/svg"
    fill="currentColor" xmlns:xlink="http://www.w3.org/1999/xlink">
    <g id="Page-1" stroke-width="1" fill-rule="evenodd">
        <g id="1080P" transform="translate(-29, -321)" fill-rule="nonzero">
            <g id="connection" transform="translate(29, 321)">
                <path
                    d="M6.00010426,7.00057026 L13.999869,7.00057026 L13.999869,5.00098016 L6.00010426,5.00098016 L6.00010426,7.00057026 Z M1.89986862,6.00000003 C1.89986862,3.70018534 3.69876912,1.89990734 6.00010426,1.89990734 L9.0001965,1.89990734 L9.0001965,2.61229616e-08 L6.00010426,2.61229616e-08 C2.69972748,2.61229616e-08 0,2.69969529 0,6.00000003 C0,9.30025129 2.69972745,12 6.00010426,12 L9.0001965,12 L9.0001965,10.1001194 L6.00010426,10.1001194 C3.69876912,10.1001461 1.89986862,8.29845131 1.89986862,6.00000003 M13.999869,0 L10.9997768,0 L10.9997768,1.89990731 L13.999869,1.89990731 C16.2996269,1.89990731 18.0986076,3.70018531 18.0986076,6 C18.0986076,8.29842456 16.2996537,10.1001194 13.999869,10.1001194 L10.9997768,10.1001194 L10.9997768,12 L13.999869,12 C17.3002191,12 20,9.30025124 20,6 C20,2.69969523 17.3002191,0 13.999869,0"
                    id="Shape"></path>
            </g>
        </g>
    </g>
</svg>