
<svg width="49px" height="43px" viewBox="0 0 69 63" version="1.1" xmlns="http://www.w3.org/2000/svg" xmlns:xlink="http://www.w3.org/1999/xlink">
    <g id="Page-1" stroke="none" stroke-width="1" fill="none" fill-rule="evenodd">
        <g id="1080P" transform="translate(-290, -44)" fill-rule="nonzero">
            <g id="话题" transform="translate(290, 44)">
                <path d="M8.09917554,53.6584751 L10.8711627,45.7403907 C10.8864775,45.7096408 10.8864775,45.6635161 10.8711627,45.6327662 C6.16184751,36.1771897 6.66723743,24.9611846 12.2112117,15.9745432 C17.755186,6.9879017 27.5413727,1.50674228 38.0933017,1.4836799 L38.4991451,1.47599244 C39.004535,1.4836799 39.5022675,1.50674228 40,1.53749212 C37.0518921,0.561184624 33.9582932,0.0384373018 30.8340646,0 L30.4282212,0.00768746144 C19.8762922,0.0230623823 10.0901055,5.5042218 4.54613124,14.4985507 C-0.997843051,23.4851922 -1.50323297,34.7011972 3.20608221,44.1567738 C3.22139705,44.1952111 3.22139705,44.2336484 3.20608221,44.2643982 L0.434095062,52.1824827 C-0.0866097063,53.6584751 0.227344638,55.3035917 1.23812448,56.4951481 C2.25656175,57.6867045 3.8339909,58.2402016 5.37313293,57.9557656 L8.46673185,57.3561437 C7.81585089,56.2491493 7.66270243,54.8961563 8.09917554,53.6584751 Z M21.7447034,57.7482042 L18.1993166,58.4323882 C21.5149807,59.9160681 25.0833399,60.7847511 28.7206158,61 C26.316185,60.2081916 23.9959858,59.1242596 21.8442499,57.7482042 C21.8136202,57.7328292 21.7753331,57.7328292 21.7447034,57.7482042 L21.7447034,57.7482042 Z" id="Shape" fill="#9FD4FF"></path>
                <path d="M33,37 L40.8100632,37 L42.2293618,28.953125 L34.4192986,28.953125 L33,37 Z M51.5998693,24.796875 C55.050098,31.1171875 61.668264,35.078125 68.89022,35.1640625 C68.9529514,34.390625 68.9921586,33.625 69,32.859375 C68.9843171,33.59375 68.9372686,34.328125 68.8666957,35.0625 C61.778044,35.0234375 55.269658,31.109375 51.8978436,24.8515625 C48.5495535,18.6484375 48.8004792,11.125 52.5408408,5.15625 C52.4467436,5.109375 52.3604879,5.046875 52.2663908,5 C51.0509693,6.8828125 50.1884121,8.9296875 49.6787192,11.046875 C48.6436506,15.640625 49.2709649,20.5234375 51.5998693,24.796875 L51.5998693,24.796875 Z" id="Shape" fill="#FFD700"></path>
                <path d="M51.9503595,25.2666163 C49.669394,21.0663394 49.0549926,16.2671198 50.068755,11.7520141 C50.5602761,9.54821249 51.4357982,7.41351964 52.6953212,5.45543807 C48.8860322,3.47432024 44.7081022,2.32250755 40.4303321,2.06143001 C39.9311309,2.03071501 39.4242497,2.00767875 38.9250485,2 L38.5180075,2.00767875 C27.9349423,2.02303625 18.119879,7.4979859 12.5595458,16.4821249 C6.99921256,25.4585851 6.49233135,36.6695619 11.2155426,46.1067472 C11.2309026,46.145141 11.2309026,46.1835347 11.2155426,46.2142497 L8.43537597,54.1233635 C7.99761493,55.3596425 8.15121529,56.7111027 8.81169687,57.8168429 C8.94225718,58.0318479 9.08049751,58.2391742 9.24177789,58.431143 C10.2632203,59.6213494 11.8453041,60.1742195 13.3889877,59.8901057 L18.5653201,58.8918681 L22.1211685,58.2084592 C22.1518886,58.1931017 22.1902887,58.1931017 22.2210088,58.2084592 C24.3790939,59.5906344 26.7061394,60.6656596 29.1176652,61.456571 C32.1589524,62.4548087 35.34616,62.9923212 38.5717676,63 C39.4856898,63 40.4380121,62.9616062 41.3980144,62.87714 C55.974689,61.5563948 67.5561566,50.0996979 69,35.5715005 L69,35.463998 C68.9615999,35.463998 68.9231998,35.4563192 68.8847997,35.4563192 C61.8115029,35.371853 55.3218875,31.4787261 51.9503595,25.2666163 Z M26.1685381,40.3476838 L26.1915782,40.340005 C25.2085359,40.3476838 24.3944539,39.5644512 24.3714139,38.581571 C24.3483738,38.1208459 24.5173342,37.6754783 24.839895,37.345292 C25.1547757,37.0151057 25.6002168,36.823137 26.0610179,36.823137 L26.1685381,36.823137 C27.1439005,36.823137 27.9349423,37.6140483 27.9349423,38.581571 C27.9349423,39.5567724 27.1439005,40.3476838 26.1685381,40.3476838 L26.1685381,40.3476838 Z M50.514196,40.340005 L44.4009015,40.340005 L43.5560995,45.1852971 C43.3871391,46.145141 42.4732169,46.7824773 41.5132146,46.6135448 C40.5532123,46.4446123 39.9157708,45.5308409 40.0847312,44.5786757 L40.837373,40.3783988 L33.1419947,40.3783988 L32.2971927,45.2236908 C32.1282323,46.1835347 31.2143101,46.8208711 30.2543079,46.6519386 C29.2943056,46.483006 28.6568641,45.5692346 28.8258245,44.6170695 L31.590631,28.9831319 L26.0840579,28.9831319 C25.1086956,28.9831319 24.3176537,28.1922205 24.3176537,27.2246979 C24.3176537,26.2494965 25.1086956,25.4662638 26.0840579,25.4662638 L32.1973525,25.4662638 L33.0421545,20.6209718 C33.2111149,19.6611279 34.1250371,19.0237915 35.0850393,19.2004028 C36.0450416,19.3693353 36.6824831,20.2831067 36.5135227,21.2352719 L35.760881,25.4355488 L43.4562593,25.4355488 L44.3010613,20.5902568 C44.3317813,20.429003 44.3932215,20.275428 44.4623416,20.1372105 C44.5698619,19.9836354 44.6773822,19.8300604 44.8002624,19.6611279 C45.1996234,19.2695116 45.7756248,19.0621853 46.3669862,19.1696878 L46.4130663,19.1696878 C47.3730686,19.3386203 48.0181901,20.2523917 47.8415497,21.2122356 L46.8124272,26.8100453 C46.6741869,27.2861279 46.6741869,27.7391742 46.5743467,28.1384693 L45.030663,36.8384945 L50.5218761,36.8384945 C51.4972384,36.8384945 52.2882803,37.6294058 52.2882803,38.5969285 C52.2806002,39.5490937 51.4895584,40.340005 50.514196,40.340005 L50.514196,40.340005 Z M50.5602761,28.9370594 L50.3759557,28.9370594 C49.4005934,28.9370594 48.6095515,28.146148 48.6095515,27.1786254 C48.6095515,26.203424 49.4005934,25.4201913 50.3759557,25.4201913 L50.5602761,25.4201913 C51.5356385,25.4201913 52.3266804,26.2111027 52.3266804,27.1786254 C52.3266804,28.1538268 51.5356385,28.9370594 50.5602761,28.9370594 L50.5602761,28.9370594 Z" id="Shape" fill="#1F95FC"></path>
                <path d="M51.2895165,25.8076423 C54.5898173,32.0540681 60.9377277,35.9610086 67.8599364,36 C67.9288522,35.2669613 67.9671387,34.5261243 67.9901107,33.8008838 C68.2810885,22.2282298 62.1322682,11.3964128 52.0093037,6 C51.9786745,6.05458799 51.9480452,6.1013777 51.917416,6.15596569 C48.2725362,12.0982584 48.019845,19.6158045 51.2895165,25.8076423 L51.2895165,25.8076423 Z" id="Path" fill="#FFD700"></path>
            </g>
        </g>
    </g>
</svg>