<svg xmlns="http://www.w3.org/2000/svg" version="1.1" viewBox="0.00 0.00 999.00 263.00">
    <path fill="#2862ae"
        d="&#10;  M 0.00 180.60&#10;  L 0.00 82.02&#10;  Q 0.79 53.89 18.26 32.28&#10;  Q 39.21 6.37 71.17 1.57&#10;  Q 78.16 0.52 91.06 0.55&#10;  Q 194.96 0.82 298.10 0.56&#10;  C 301.80 0.55 302.98 4.90 301.06 7.48&#10;  Q 285.11 28.89 268.64 50.85&#10;  Q 265.92 54.48 260.91 54.49&#10;  Q 177.90 54.57 90.79 54.42&#10;  Q 80.91 54.40 75.67 55.95&#10;  Q 60.03 60.58 54.03 76.66&#10;  Q 53.25 78.74 52.99 80.88&#10;  C 52.74 83.03 52.08 85.00 52.03 87.24&#10;  Q 51.85 95.24 52.01 102.89&#10;  A 1.39 1.38 -0.6 0 0 53.40 104.24&#10;  Q 136.94 104.22 220.92 104.26&#10;  C 223.08 104.26 224.89 105.58 225.57 107.69&#10;  C 226.05 109.21 224.85 111.12 223.98 112.33&#10;  Q 208.86 133.27 193.19 154.93&#10;  C 191.20 157.68 187.67 158.73 184.34 158.73&#10;  Q 120.88 158.65 53.80 158.63&#10;  Q 52.00 158.63 51.99 160.43&#10;  Q 51.97 165.49 51.99 171.63&#10;  Q 52.01 179.03 53.39 183.47&#10;  Q 58.96 201.48 76.94 207.07&#10;  Q 81.91 208.62 92.34 208.58&#10;  Q 133.83 208.43 172.60 208.56&#10;  Q 184.06 208.60 192.33 202.52&#10;  Q 196.77 199.26 203.06 190.52&#10;  Q 258.79 113.08 319.47 29.70&#10;  Q 338.19 3.98 370.24 0.92&#10;  Q 378.20 0.16 406.16 0.91&#10;  Q 408.13 0.96 410.97 2.25&#10;  Q 413.14 3.23 415.13 4.59&#10;  Q 426.35 12.27 439.14 21.17&#10;  Q 442.80 23.72 445.90 24.25&#10;  C 450.09 24.97 454.18 24.04 457.56 21.42&#10;  Q 468.80 12.70 479.67 4.37&#10;  Q 484.64 0.56 491.03 0.59&#10;  Q 500.52 0.64 510.09 0.59&#10;  Q 519.35 0.53 528.13 2.66&#10;  Q 557.29 9.70 575.48 32.73&#10;  Q 589.53 50.51 592.44 72.78&#10;  Q 593.20 78.64 593.22 92.75&#10;  C 593.25 123.47 593.26 153.30 593.02 182.98&#10;  Q 592.94 192.93 591.48 199.44&#10;  C 586.65 221.02 572.64 239.69 553.99 250.96&#10;  Q 540.53 259.10 524.48 261.47&#10;  Q 517.63 262.49 505.92 262.47&#10;  Q 381.97 262.28 261.74 262.45&#10;  Q 259.13 262.45 257.04 260.76&#10;  C 255.08 259.17 256.03 256.34 257.29 254.66&#10;  Q 272.07 234.99 288.78 212.42&#10;  C 291.29 209.03 294.63 208.49 298.98 208.49&#10;  Q 403.18 208.52 509.00 208.60&#10;  Q 512.93 208.60 517.58 207.59&#10;  Q 532.21 204.39 538.34 190.68&#10;  C 540.28 186.35 541.28 181.26 541.29 176.33&#10;  Q 541.40 132.55 541.35 89.23&#10;  Q 541.33 79.51 537.50 72.25&#10;  Q 532.03 61.93 521.93 57.45&#10;  C 515.96 54.80 509.19 54.34 502.77 54.64&#10;  Q 498.97 54.82 496.00 57.04&#10;  Q 479.55 69.30 459.03 84.91&#10;  C 454.54 88.32 449.59 90.37 444.30 88.40&#10;  Q 441.43 87.33 437.88 84.79&#10;  Q 418.96 71.27 399.92 58.07&#10;  Q 399.19 57.57 398.47 57.01&#10;  C 394.74 54.13 390.50 54.56 386.17 54.48&#10;  Q 368.07 54.16 357.30 68.96&#10;  Q 305.78 139.80 245.62 223.09&#10;  Q 237.29 234.63 233.83 238.61&#10;  C 225.29 248.45 213.81 256.00 201.08 259.45&#10;  Q 190.89 262.20 179.88 262.24&#10;  Q 133.70 262.40 82.75 262.39&#10;  Q 76.39 262.39 68.53 260.85&#10;  Q 36.57 254.61 17.29 229.69&#10;  Q 1.06 208.70 0.00 180.60&#10;  Z" />
    <path fill="#4cb6d4"
        d="&#10;  M 673.46 61.10&#10;  L 725.69 61.10&#10;  Q 726.27 61.10 726.18 61.68&#10;  L 723.65 77.43&#10;  A 0.68 0.67 -85.5 0 1 722.99 78.00&#10;  L 670.48 78.00&#10;  Q 669.89 78.00 669.83 78.59&#10;  C 669.16 86.27 670.30 94.58 678.43 97.76&#10;  Q 681.71 99.03 685.67 99.54&#10;  Q 689.85 100.08 693.50 100.10&#10;  Q 706.26 100.17 719.24 100.09&#10;  Q 719.77 100.08 719.68 100.60&#10;  L 717.00 116.43&#10;  A 0.67 0.66 4.5 0 1 716.34 116.98&#10;  Q 701.56 117.05 687.92 116.96&#10;  C 679.93 116.91 669.93 116.58 663.08 113.09&#10;  Q 654.44 108.70 650.68 99.91&#10;  Q 646.84 90.96 647.17 80.46&#10;  Q 647.42 72.34 649.17 64.52&#10;  C 653.17 46.69 664.36 30.12 681.45 23.81&#10;  C 683.53 23.04 685.52 23.02 687.56 22.31&#10;  Q 688.74 21.90 690.00 21.88&#10;  Q 711.59 21.59 732.77 21.78&#10;  A 0.18 0.18 0.0 0 1 732.94 21.99&#10;  L 730.14 38.27&#10;  Q 730.06 38.75 729.56 38.75&#10;  C 718.28 38.63 706.67 38.52 695.13 39.00&#10;  C 686.45 39.35 679.30 43.43 675.72 51.44&#10;  Q 674.04 55.21 672.82 60.29&#10;  Q 672.63 61.10 673.46 61.10&#10;  Z" />
    <path fill="#4cb6d4"
        d="&#10;  M 958.95 62.22&#10;  L 948.00 62.22&#10;  Q 947.42 62.22 947.51 61.64&#10;  L 949.78 47.98&#10;  Q 949.89 47.35 950.52 47.35&#10;  L 961.47 47.36&#10;  Q 962.06 47.36 962.15 46.78&#10;  L 966.26 22.22&#10;  Q 966.34 21.74 966.82 21.74&#10;  L 985.00 21.74&#10;  Q 985.51 21.74 985.43 22.24&#10;  L 981.35 46.82&#10;  Q 981.26 47.36 981.80 47.36&#10;  L 998.25 47.35&#10;  Q 998.91 47.35 998.81 48.00&#10;  L 996.65 61.70&#10;  A 0.61 0.61 0.0 0 1 996.05 62.22&#10;  L 979.27 62.22&#10;  Q 978.75 62.22 978.65 62.74&#10;  Q 977.76 67.51 977.13 72.07&#10;  Q 976.84 74.18 976.31 76.12&#10;  C 975.81 77.99 975.85 79.85 975.46 81.77&#10;  Q 974.37 87.28 973.63 93.47&#10;  C 972.37 104.06 982.55 102.06 989.12 102.11&#10;  Q 989.78 102.11 989.67 102.77&#10;  L 987.37 116.29&#10;  Q 987.25 117.02 986.51 117.02&#10;  Q 980.16 116.96 974.17 117.02&#10;  C 964.91 117.12 955.18 115.19 954.15 103.90&#10;  Q 953.52 96.91 954.98 89.38&#10;  Q 955.54 86.52 955.90 83.64&#10;  Q 956.14 81.70 956.62 80.00&#10;  C 957.09 78.34 956.98 76.76 957.31 75.08&#10;  Q 958.53 68.90 959.44 62.79&#10;  Q 959.52 62.22 958.95 62.22&#10;  Z" />
    <path fill="#4cb6d4"
        d="&#10;  M 761.07 94.55&#10;  L 788.09 47.52&#10;  A 0.33 0.33 0.0 0 1 788.38 47.35&#10;  L 807.93 47.36&#10;  A 0.33 0.33 0.0 0 1 808.21 47.86&#10;  L 766.85 116.83&#10;  A 0.33 0.33 0.0 0 1 766.56 116.99&#10;  L 746.34 117.00&#10;  A 0.33 0.33 0.0 0 1 746.02 116.74&#10;  L 730.14 47.75&#10;  A 0.33 0.33 0.0 0 1 730.46 47.35&#10;  L 750.68 47.36&#10;  A 0.33 0.33 0.0 0 1 751.00 47.62&#10;  L 760.46 94.45&#10;  A 0.33 0.33 0.0 0 0 761.07 94.55&#10;  Z" />
    <path fill="#4cb6d4"
        d="&#10;  M 825.79 74.74&#10;  L 864.82 74.74&#10;  Q 865.42 74.74 865.32 75.33&#10;  L 862.99 89.06&#10;  Q 862.91 89.54 862.43 89.54&#10;  L 823.06 89.54&#10;  A 0.55 0.55 0.0 0 0 822.51 90.07&#10;  Q 822.37 93.97 823.49 96.68&#10;  C 825.77 102.20 834.06 102.24 839.32 102.17&#10;  Q 848.39 102.05 860.20 102.14&#10;  Q 860.83 102.15 860.72 102.76&#10;  L 858.43 116.30&#10;  Q 858.31 116.99 857.61 116.99&#10;  C 847.30 117.02 836.83 117.24 826.48 116.76&#10;  C 816.04 116.28 807.23 110.32 803.75 100.37&#10;  C 801.98 95.30 801.25 88.94 802.47 83.54&#10;  C 802.93 81.50 803.04 79.55 803.56 77.52&#10;  C 807.10 63.91 817.10 51.33 831.41 48.46&#10;  Q 834.19 47.90 838.04 47.61&#10;  Q 841.25 47.37 844.52 47.36&#10;  Q 857.01 47.35 869.58 47.34&#10;  A 0.35 0.34 -85.7 0 1 869.92 47.74&#10;  L 867.68 61.74&#10;  Q 867.60 62.24 867.10 62.23&#10;  Q 853.46 62.13 839.50 62.44&#10;  Q 827.53 62.71 825.38 74.25&#10;  Q 825.29 74.74 825.79 74.74&#10;  Z" />
    <path fill="#4cb6d4"
        d="&#10;  M 896.42 63.00&#10;  L 887.48 116.44&#10;  A 0.67 0.67 0.0 0 1 886.82 117.00&#10;  L 868.52 117.00&#10;  A 0.30 0.29 -85.8 0 1 868.23 116.66&#10;  L 879.82 47.85&#10;  Q 879.91 47.36 880.40 47.36&#10;  Q 899.21 47.32 918.06 47.40&#10;  Q 921.47 47.41 924.72 47.76&#10;  Q 928.51 48.16 931.11 49.28&#10;  C 941.03 53.55 941.92 64.36 940.30 73.88&#10;  Q 936.50 96.25 933.11 116.46&#10;  Q 933.02 117.00 932.48 117.00&#10;  L 914.49 117.00&#10;  Q 913.89 117.00 913.99 116.42&#10;  Q 915.63 106.10 917.68 94.01&#10;  Q 919.46 83.50 921.27 72.96&#10;  C 922.19 67.65 921.84 62.81 915.40 62.43&#10;  Q 908.46 62.02 897.26 62.27&#10;  Q 896.54 62.29 896.42 63.00&#10;  Z" />
    <path fill="#225aa0"
        d="&#10;  M 667.47 175.74&#10;  L 656.07 243.45&#10;  Q 655.98 244.00 655.42 244.00&#10;  L 636.95 244.00&#10;  Q 636.65 244.00 636.70 243.70&#10;  L 652.59 149.30&#10;  Q 652.68 148.80 653.19 148.80&#10;  L 681.70 148.80&#10;  A 0.77 0.77 0.0 0 1 682.46 149.45&#10;  L 693.36 222.19&#10;  Q 693.52 223.24 694.00 222.29&#10;  L 730.83 149.23&#10;  Q 731.05 148.79 731.55 148.79&#10;  L 760.14 148.80&#10;  Q 760.73 148.80 760.64 149.39&#10;  L 744.81 243.51&#10;  Q 744.73 244.00 744.23 244.00&#10;  L 725.75 244.00&#10;  A 0.32 0.31 -85.3 0 1 725.44 243.63&#10;  L 737.21 173.70&#10;  Q 737.39 172.62 736.89 173.60&#10;  L 700.68 243.72&#10;  A 0.51 0.50 -76.6 0 1 700.23 244.00&#10;  L 680.03 244.00&#10;  Q 679.53 244.00 679.46 243.51&#10;  L 668.52 175.75&#10;  Q 668.00 172.56 667.47 175.74&#10;  Z" />
    <path fill="#225aa0"
        d="&#10;  M 929.23 174.40&#10;  Q 937.22 174.46 946.58 174.38&#10;  Q 950.05 174.36 953.43 174.70&#10;  C 956.57 175.01 959.75 174.98 962.74 176.14&#10;  C 973.64 180.41 974.05 191.00 972.39 200.78&#10;  Q 968.89 221.40 965.19 243.59&#10;  Q 965.12 244.00 964.70 244.00&#10;  L 946.20 244.00&#10;  A 0.33 0.33 0.0 0 1 945.88 243.60&#10;  Q 946.92 238.41 947.76 233.24&#10;  Q 950.17 218.39 953.04 201.69&#10;  C 953.82 197.17 953.92 191.90 948.70 190.39&#10;  C 946.44 189.74 943.69 189.30 941.33 189.28&#10;  Q 934.27 189.22 926.65 189.23&#10;  Q 926.10 189.23 926.00 189.78&#10;  L 916.96 243.44&#10;  Q 916.87 244.00 916.30 244.00&#10;  L 898.49 244.00&#10;  Q 897.69 244.00 897.82 243.21&#10;  L 913.62 149.30&#10;  Q 913.70 148.79 914.21 148.79&#10;  L 932.36 148.80&#10;  Q 932.89 148.80 932.80 149.33&#10;  L 928.70 173.77&#10;  Q 928.60 174.39 929.23 174.40&#10;  Z" />
    <path fill="#225aa0"
        d="&#10;  M 782.49 201.76&#10;  L 821.47 201.76&#10;  A 0.63 0.62 -85.3 0 1 822.08 202.49&#10;  L 819.86 215.95&#10;  A 0.82 0.82 0.0 0 1 819.05 216.64&#10;  L 779.93 216.64&#10;  Q 779.31 216.64 779.27 217.26&#10;  C 778.72 226.46 784.27 229.02 792.30 229.07&#10;  Q 804.82 229.15 816.96 229.11&#10;  Q 817.54 229.11 817.45 229.68&#10;  L 815.24 243.46&#10;  Q 815.15 244.02 814.59 244.02&#10;  Q 801.19 243.97 788.21 244.00&#10;  C 782.03 244.01 776.04 243.42 770.85 240.20&#10;  Q 759.35 233.07 758.95 218.23&#10;  Q 758.55 203.52 765.66 192.17&#10;  C 770.57 184.34 777.25 178.48 785.74 176.09&#10;  Q 788.68 175.26 791.20 175.08&#10;  C 793.92 174.88 796.54 174.45 799.29 174.44&#10;  Q 812.95 174.39 826.53 174.41&#10;  A 0.27 0.27 0.0 0 1 826.80 174.73&#10;  L 824.40 188.72&#10;  Q 824.31 189.25 823.77 189.25&#10;  Q 811.60 189.25 798.97 189.24&#10;  C 796.43 189.23 793.91 189.70 791.44 190.21&#10;  C 785.94 191.36 783.60 196.02 781.99 201.08&#10;  Q 781.78 201.76 782.49 201.76&#10;  Z" />
    <path fill="#225aa0"
        d="&#10;  M 866.93 229.03&#10;  C 871.35 228.99 873.54 225.95 873.65 221.93&#10;  C 873.82 216.42 867.82 216.47 864.01 216.50&#10;  Q 855.60 216.56 846.37 216.35&#10;  Q 841.08 216.23 837.54 214.34&#10;  Q 829.27 209.92 829.12 199.45&#10;  C 828.97 188.41 835.76 177.30 847.25 175.21&#10;  Q 848.64 174.96 852.99 174.61&#10;  Q 855.85 174.38 858.75 174.39&#10;  Q 877.96 174.45 896.17 174.39&#10;  Q 897.28 174.38 897.09 175.48&#10;  L 894.81 188.72&#10;  Q 894.72 189.23 894.20 189.23&#10;  Q 877.74 189.28 860.05 189.22&#10;  Q 855.89 189.20 852.91 190.18&#10;  Q 848.93 191.49 849.04 197.37&#10;  C 849.11 201.04 852.80 202.24 856.00 202.25&#10;  Q 865.86 202.28 875.25 202.48&#10;  Q 878.94 202.56 883.45 204.30&#10;  Q 890.86 207.15 892.53 214.33&#10;  Q 893.78 219.65 891.33 226.53&#10;  Q 888.89 233.38 883.37 238.70&#10;  C 878.17 243.72 871.03 244.04 864.16 244.02&#10;  Q 844.26 243.96 822.55 244.01&#10;  Q 821.74 244.01 822.02 243.25&#10;  C 822.43 242.10 822.78 240.99 822.94 239.76&#10;  Q 823.58 234.78 824.55 229.66&#10;  Q 824.65 229.10 825.23 229.10&#10;  Q 845.03 229.21 866.93 229.03&#10;  Z" />
</svg>