<svg width="20.9985px" height="23.634px" viewBox="0 0 20.9985 23.634" version="1.1" xmlns="http://www.w3.org/2000/svg"
    xmlns:xlink="http://www.w3.org/1999/xlink">
    <g id="Icons" stroke="none" stroke-width="1" fill="none" fill-rule="evenodd">
        <path
            d="M10.554,0 C11.577,0 12.438,0.807 12.438,1.884 C12.438,2.1 12.384,2.2605 12.33,2.424 L17.715,5.439 C18.0375,5.061 18.576,4.7925 19.1145,4.7925 C20.1375,4.7925 20.9985,5.5995 20.9985,6.6765 C20.981901,7.59212025 20.3336357,8.37427324 19.437,8.5605 L19.437,14.8605 C20.3535,15.0225 20.9985,15.7755 20.943,16.7445 C20.943,17.7675 20.136,18.6285 19.059,18.6285 C18.4665,18.6285 17.982,18.3585 17.6055,17.982 L12.1665,20.943 C12.2745,21.2115 12.3285,21.4815 12.3285,21.75 C12.3285,22.773 11.4675,23.634 10.4445,23.634 C9.4215,23.634 8.5605,22.827 8.5605,21.75 C8.55656824,21.4894675 8.61196646,21.2314554 8.7225,20.9955 L3.2835,17.9805 C2.961,18.3585 2.4225,18.627 1.884,18.627 C0.861,18.627 0,17.82 0,16.743 C0,15.828 0.6465,15.075 1.5075,14.859 L1.5075,8.505 C0.6465,8.2905 0,7.536 0,6.621 C0,5.598 0.807,4.737 1.884,4.737 C2.4225,4.737 2.907,5.007 3.339,5.4375 L8.724,2.3685 C8.724,2.2065 8.67,2.046 8.67,1.884 C8.67,0.861 9.531,0 10.554,0 Z M11.898,3.1215 C11.5755,3.498 11.091,3.714 10.5525,3.714 C10.014,3.714 9.4755,3.4995 9.153,3.123 L3.768,6.192 C3.768,6.354 3.822,6.5145 3.822,6.6765 C3.822,6.8925 3.768,7.053 3.714,7.269 L7.752,9.744 L7.2675,10.4985 L3.2295,8.022 C3.015,8.2905 2.745,8.3985 2.4225,8.5065 L2.4225,14.9145 C3.2295,15.1305 3.822,15.885 3.822,16.746 C3.822,16.908 3.822,17.0685 3.768,17.2305 L9.3135,20.2995 C9.5295,20.139 9.7995,19.977 10.068,19.923 L10.068,15.1305 L10.983,15.1305 L10.983,19.923 C11.218305,19.9851092 11.4383496,20.0948762 11.6295,20.2455 L17.283,17.232 C17.229,17.124 17.229,16.9635 17.229,16.8015 C17.229,15.939 17.7675,15.186 18.5745,14.97 L18.5745,8.562 C18.252,8.454 17.9835,8.2935 17.7675,8.0775 L13.7835,10.5 L13.299,9.7455 L17.337,7.2675 C17.283,7.0515 17.229,6.891 17.229,6.675 C17.229,6.513 17.229,6.3525 17.283,6.1905 Z M9.81924801,9.39849801 C10.6739173,9.16949006 11.5858386,9.41383864 12.2115,10.0395 C13.1786887,11.0066887 13.1786887,12.5748113 12.2115,13.542 C11.2443113,14.5091887 9.67618867,14.5091887 8.709,13.542 C8.08333864,12.9163386 7.83899006,12.0044173 8.06799801,11.149748 C8.29700597,10.2950787 8.96457869,9.62750597 9.81924801,9.39849801 Z"
            id="mesh" fill="currentColor" fill-rule="nonzero"></path>
    </g>
</svg>