<svg width="18px" height="18px" viewBox="0 0 18 18.9549134" version="1.1" xmlns="http://www.w3.org/2000/svg"
    fill="currentColor" xmlns:xlink="http://www.w3.org/1999/xlink">
    <g id="home-2" stroke-width="1" fill-rule="evenodd">
        <g id="home-1" transform="translate(-30, -179)">
            <g id="home" transform="translate(30, 179)">
                <path
                    d="M17.2014933,5.20154645 L11.4520067,0.82583097 C10.7479111,0.289434603 9.88705827,-0.00072504838 9.00191917,1.36059384e-06 C8.13695217,1.36059384e-06 7.27589902,0.273974187 6.5518316,0.82583097 L0.798431091,5.20154645 C0.293540842,5.58510647 1.30358321e-15,6.18001593 1.30358321e-15,6.81406415 L1.30358321e-15,15.2445571 C1.30358321e-15,17.2954291 1.6633981,18.9549134 3.71035624,18.9549134 L14.2895682,18.9549134 C16.3404402,18.9549134 17.9999626,17.2915153 17.9999626,15.2445571 L17.9999626,6.81406415 C18.0038383,6.18001593 17.7063836,5.5851065 17.2014933,5.20154645 Z M16.4382872,15.2406432 C16.4382872,16.4226344 15.4754732,17.3854484 14.2934821,17.3854484 L3.71035624,17.3854484 C2.52836513,17.3854484 1.56555117,16.4226344 1.56555117,15.2406432 L1.56555117,6.81406415 C1.56555117,6.67316455 1.63208708,6.53617883 1.74558956,6.4500735 L7.49899006,2.07435803 C7.93343051,1.7416784 8.45397628,1.56555389 9.00191917,1.56555389 C9.54986207,1.56555389 10.0704078,1.7416784 10.5048483,2.07435803 L16.2582488,6.4500735 C16.3717512,6.53617883 16.4382872,6.67316455 16.4382872,6.81406415 L16.4382872,15.2406432 Z"
                    id="Shape"></path>
                <path
                    d="M8.99800529,8.72403655 C6.91582224,8.72403655 5.22111313,10.4187457 5.22111313,12.5009287 L5.22111313,15.1271408 C5.22111313,15.5576674 5.57336214,15.9099164 6.0038887,15.9099164 C6.43441526,15.9099164 6.78666427,15.5576674 6.78666427,15.1271408 L6.78666427,12.5009287 C6.78666427,11.2837127 7.77687539,10.2895877 8.99800529,10.2895877 C10.2191352,10.2895877 11.2093463,11.2797988 11.2093463,12.5009287 L11.2093463,15.1271408 C11.2093463,15.5576674 11.5615953,15.9099164 11.9921219,15.9099164 C12.4226484,15.9099164 12.7748974,15.5576674 12.7748974,15.1271408 L12.7748974,12.5009287 C12.7748974,10.4187457 11.0841022,8.72403655 8.99800529,8.72403655 Z"
                    id="Path"></path>
            </g>
        </g>
    </g>
</svg>