
<svg width="20.3483686px" height="19.9360301px" viewBox="0 0 20.3483686 19.9360301" version="1.1" xmlns="http://www.w3.org/2000/svg" xmlns:xlink="http://www.w3.org/1999/xlink">
    <g id="Icons" stroke="none" stroke-width="1" fill="none" fill-rule="evenodd">
        <path d="M10.3773828,18.4459078 C10.2419171,18.5061148 10.1064515,18.5061148 9.9709858,18.4459078 L3.35574589,15.2624647 C3.22028023,15.187206 3.1299698,15.074318 3.08481458,14.9238006 L1.45922661,7.76669803 C1.42912312,7.61618063 1.45922661,7.48071496 1.54953706,7.36030104 L6.13279198,1.62558797 C6.22310242,1.50517405 6.34351635,1.44496709 6.49403377,1.44496709 L13.8543348,1.44496709 C14.0048522,1.44496709 14.1252661,1.50517405 14.2155766,1.62558797 L18.7988315,7.36030104 C18.8891419,7.48071496 18.9192454,7.61618063 18.889142,7.76669803 L17.263554,14.9238006 C17.2183988,15.074318 17.1280883,15.187206 16.9926227,15.2624647 L10.3773828,18.4459078 M11.0095559,19.7328316 L17.6247957,16.5493885 C17.8806753,16.4289746 18.1026885,16.2558796 18.2908353,16.0301035 C18.478982,15.8043274 18.6031589,15.5484478 18.6633658,15.2624647 L20.2889538,8.10536217 C20.3642125,7.81937911 20.3679754,7.53339605 20.3002426,7.24741298 C20.2325098,6.96142992 20.1083329,6.69802447 19.927712,6.45719662 L15.3444571,0.722483531 C15.1638362,0.496707422 14.941823,0.319849477 14.6784176,0.191909695 C14.4150121,0.0639699141 14.1403179,0 13.8543348,0 L6.49403377,0 C6.20805071,0 5.93335644,0.0639698984 5.66995098,0.191909695 C5.40654551,0.319849492 5.18453234,0.496707438 5.00391146,0.722483531 L0.420656538,6.45719662 C0.240035648,6.69802447 0.115858788,6.96142992 0.0481259603,7.24741298 C-0.0196068678,7.53339605 -0.0158439381,7.81937911 0.0594147494,8.10536217 L1.68500272,15.2624647 C1.74520969,15.5484478 1.86938655,15.8043274 2.0575333,16.0301035 C2.24568005,16.2558796 2.46769322,16.4289746 2.72357281,16.5493885 L9.33881269,19.7328316 C9.60974402,19.8682973 9.88820122,19.9360301 10.1741843,19.9360301 C10.4601673,19.9360301 10.7386245,19.8682973 11.0095559,19.7328316 M9.72263206,3.79303856 C8.84963112,3.85324553 8.03307421,4.10536219 7.27296132,4.54938853 C6.51284843,4.99341487 5.88443827,5.57666981 5.38773085,6.29915334 L4.41689359,5.8024459 C4.32658315,5.75729068 4.23250977,5.74976481 4.13467346,5.7798683 C4.03683715,5.80997178 3.96157844,5.8664158 3.90889735,5.94920037 C3.85621626,6.03198495 3.84116452,6.12229539 3.86374212,6.2201317 C3.88631973,6.31796802 3.94276377,6.39698966 4.03307422,6.45719662 L4.95875626,7.04421448 C4.58246274,7.84195671 4.39431598,8.68109124 4.39431598,9.56161807 C4.39431598,10.4421449 4.58246274,11.2812794 4.95875626,12.0790216 L4.05565182,12.6660395 C3.96534138,12.7262465 3.90889736,12.8052681 3.88631975,12.9031044 C3.86374214,13.0009407 3.87879388,13.0912512 3.93147498,13.1740358 C3.98415607,13.2568203 4.05941477,13.3132644 4.15725106,13.3433678 C4.25508736,13.3734713 4.34163487,13.3659454 4.41689359,13.3207902 L5.41030845,12.8240828 C5.90701589,13.5465663 6.53542605,14.1260583 7.29553894,14.5625588 C8.05565184,14.9990593 8.87220875,15.247413 9.74520969,15.30762 L9.81294252,16.4139229 C9.81294252,16.519285 9.85057187,16.6058325 9.92583057,16.6735654 C10.0010893,16.7412982 10.0876368,16.7751646 10.1854731,16.7751646 C10.2833094,16.7751646 10.3698569,16.7412982 10.4451156,16.6735654 C10.5203743,16.6058325 10.5580037,16.519285 10.5580037,16.4139229 L10.6257365,15.30762 C11.4987374,15.247413 12.3152944,14.9952963 13.0754072,14.55127 C13.8355201,14.1072436 14.4639303,13.5239887 14.9606377,12.8015052 L15.931475,13.2982126 C16.0217854,13.3433678 16.1158588,13.3508937 16.2136951,13.3207902 C16.3115314,13.2906867 16.3867901,13.2342427 16.4394712,13.1514581 C16.4921523,13.0686736 16.507204,12.9783631 16.4846264,12.8805268 C16.4620488,12.7826905 16.4056048,12.7036689 16.3152943,12.6434619 L15.3896123,12.056444 C15.7659058,11.2587018 15.9540526,10.4195673 15.9540526,9.53904045 C15.9540526,8.65851363 15.7659058,7.82690498 15.3896123,7.04421448 L16.2927167,6.434619 C16.3830272,6.37441203 16.4394712,6.2953904 16.4620488,6.1975541 C16.4846264,6.0997178 16.4733376,6.00940736 16.4281824,5.92662277 C16.3830272,5.84383819 16.3115314,5.78739416 16.2136951,5.7572907 C16.1158588,5.72718723 16.0217854,5.73471309 15.931475,5.7798683 L14.9380601,6.27657572 C14.4413527,5.55409219 13.8129425,4.97460019 13.0528296,4.53809972 C12.2927167,4.10159925 11.4761598,3.85324553 10.6031589,3.79303856 L10.535426,2.68673566 C10.535426,2.58137348 10.4977967,2.49482597 10.422538,2.42709314 C10.3472793,2.35936031 10.2607318,2.32549387 10.1628955,2.32549387 C10.0650592,2.32549387 9.97851165,2.3593603 9.90325294,2.42709314 C9.82799424,2.49482598 9.79036489,2.58137349 9.79036489,2.68673566 L9.72263206,3.79303856 M9.65489923,5.23800565 L9.5645888,7.22483538 C9.14314007,7.33019757 8.77437243,7.54092193 8.45828588,7.85700846 L6.69723226,6.95390405 C7.04342229,6.48730009 7.47615983,6.10348071 7.99544487,5.8024459 C8.51472992,5.50141109 9.06788137,5.31326434 9.65489923,5.23800565 M6.17794721,7.83443086 L7.84869041,8.91815616 C7.72827648,9.33960489 7.72827648,9.76857949 7.84869041,10.20508 L6.20052484,11.2662277 C5.95969699,10.724365 5.83928305,10.1561618 5.83928305,9.56161807 C5.83928305,8.96707434 5.95217109,8.39134527 6.17794721,7.83443086 M6.69723226,12.1467545 L8.45828588,11.2436501 C8.77437243,11.5597366 9.14314007,11.770461 9.5645888,11.8758231 L9.67747686,13.8626529 C9.09045898,13.7873942 8.53730752,13.6030103 8.01802248,13.3095014 C7.49873743,13.0159925 7.05847402,12.6284102 6.69723226,12.1467545 M10.6934693,13.8626529 L10.7837798,11.8758231 C11.2202802,11.7704609 11.5890479,11.5597366 11.8900827,11.2436501 L13.6511363,12.1241769 C13.3049463,12.6058326 12.8722087,12.9971778 12.3529237,13.2982126 C11.8336386,13.5992474 11.2804872,13.7873942 10.6934693,13.8626529 M14.1704214,11.2662277 L12.4996782,10.1825024 C12.6200921,9.76105363 12.6200921,9.33207902 12.4996782,8.89557855 L14.1478437,7.83443086 C14.3886716,8.37629352 14.5090855,8.94449671 14.5090855,9.53904045 C14.5090855,10.1335842 14.3961975,10.7093133 14.1704214,11.2662277 M13.6511363,6.95390405 L11.8900827,7.85700846 C11.5739961,7.54092191 11.2052285,7.33019755 10.7837798,7.22483538 L10.6708917,5.23800565 C11.2579096,5.31326435 11.811061,5.49764817 12.3303461,5.79115711 C12.8496311,6.08466605 13.2898945,6.47224836 13.6511363,6.95390405 M10.1741843,8.35371591 L11.1224439,8.8052681 L11.34822,9.82126059 L10.6934693,10.6340546 L9.65489923,10.6340546 L9.00014853,9.82126059 L9.22592464,8.8052681 L10.1741843,8.35371591 L10.1741843,8.35371591 Z" id="Shape" fill="currentColor" fill-rule="nonzero"></path>
    </g>
</svg>