<svg width="17.859375px" height="14.2734375px" viewBox="0 0 17.859375 14.2734375" version="1.1"
    xmlns="http://www.w3.org/2000/svg" xmlns:xlink="http://www.w3.org/1999/xlink">
    <g id="Page-1" stroke="none" stroke-width="1" fill="currentColor" fill-rule="evenodd">
        <g id="1080P" transform="translate(-33, -577)" fill-rule="nonzero">
            <g id="日志-(1)" transform="translate(33, 577)">
                <path
                    d="M16.2773438,14.2734375 L1.58203125,14.2734375 C0.708701102,14.2724687 0.000968753137,13.5647364 0,12.6914062 L0,1.58203125 C0.000968753137,0.708701102 0.708701102,0.000968753137 1.58203125,-8.8817842e-16 L16.2773438,-8.8817842e-16 C17.1506739,0.000968753137 17.8584062,0.708701102 17.859375,1.58203125 L17.859375,12.6914062 C17.8584062,13.5647364 17.1506739,14.2724687 16.2773438,14.2734375 Z M1.58203125,1.0546875 C1.29078734,1.0546875 1.0546875,1.29078734 1.0546875,1.58203125 L1.0546875,12.6914062 C1.0546875,12.9826502 1.29078734,13.21875 1.58203125,13.21875 L16.2773438,13.21875 C16.5685877,13.21875 16.8046875,12.9826502 16.8046875,12.6914062 L16.8046875,1.58203125 C16.8046875,1.29078734 16.5685877,1.0546875 16.2773438,1.0546875 L1.58203125,1.0546875 Z"
                    id="Shape"></path>
                <path
                    d="M11.0478516,3.54199219 L2.31152344,3.54199219 C2.02027953,3.54199219 1.78417969,3.30589235 1.78417969,3.01464844 C1.78417969,2.72340453 2.02027953,2.48730469 2.31152344,2.48730469 L11.0478516,2.48730469 C11.3390955,2.48730469 11.5751953,2.72340453 11.5751953,3.01464844 C11.5751953,3.30589235 11.3390955,3.54199219 11.0478516,3.54199219 Z M15.5478516,3.54199219 L12.6826172,3.54199219 C12.3913733,3.54199219 12.1552734,3.30589235 12.1552734,3.01464844 C12.1552734,2.72340453 12.3913733,2.48730469 12.6826172,2.48730469 L15.5478516,2.48730469 C15.8390955,2.48730469 16.0751953,2.72340453 16.0751953,3.01464844 C16.0751953,3.30589235 15.8390955,3.54199219 15.5478516,3.54199219 Z M14.7216797,6.28998047 L2.31152344,6.28998047 C2.02027953,6.28998047 1.78417969,6.05388063 1.78417969,5.76263672 C1.78417969,5.47139281 2.02027953,5.23529297 2.31152344,5.23529297 L14.7216797,5.23529297 C15.0129236,5.23529297 15.2490234,5.47139281 15.2490234,5.76263672 C15.2490234,6.05388063 15.0129236,6.28998047 14.7216797,6.28998047 L14.7216797,6.28998047 Z M6.17871094,9.03814453 L2.31152344,9.03814453 C2.02027953,9.03814453 1.78417969,8.80204469 1.78417969,8.51080078 C1.78417969,8.21955687 2.02027953,7.98345703 2.31152344,7.98345703 L6.17871094,7.98345703 C6.46995485,7.98345703 6.70605469,8.21955687 6.70605469,8.51080078 C6.70605469,8.80204469 6.46995485,9.03814453 6.17871094,9.03814453 Z M15.5478516,9.03814453 L7.65527344,9.03814453 C7.36402953,9.03814453 7.12792969,8.80204469 7.12792969,8.51080078 C7.12792969,8.21955687 7.36402953,7.98345703 7.65527344,7.98345703 L15.5478516,7.98345703 C15.8390955,7.98345703 16.0751953,8.21955687 16.0751953,8.51080078 C16.0751953,8.80204469 15.8390955,9.03814453 15.5478516,9.03814453 Z M7.04003906,11.7861328 L2.31152344,11.7861328 C2.02027953,11.7861328 1.78417969,11.550033 1.78417969,11.2587891 C1.78417969,10.9675452 2.02027953,10.7314453 2.31152344,10.7314453 L7.04003906,10.7314453 C7.33128297,10.7314453 7.56738281,10.9675452 7.56738281,11.2587891 C7.56738281,11.550033 7.33128297,11.7861328 7.04003906,11.7861328 Z"
                    id="Shape"></path>
            </g>
        </g>
    </g>
</svg>