<svg width="18px" height="16.1466208px" viewBox="0 0 18 16.1466208" version="1.1" xmlns="http://www.w3.org/2000/svg"
    xmlns:xlink="http://www.w3.org/1999/xlink">
    <g id="Page-1" stroke="none" stroke-width="1" fill="currentColor" fill-rule="evenodd">
        <g id="1080P" transform="translate(-31, -359)">
            <g id="Message" transform="translate(31, 355)">
                <path
                    d="M15.2833998,4 C16.781007,4 18,5.18983051 18,6.65244266 L18,13.7577767 C18,15.2217348 16.781007,16.4115653 15.2833998,16.4115653 L9.858,16.411 L7.91201395,19.8235793 C7.80292148,20.0222804 7.59447465,20.1460081 7.36779661,20.1466182 C7.13907696,20.1472785 6.92963077,20.0232643 6.82088734,19.8235793 L4.875,16.411 L2.71615155,16.4115653 C1.21854436,16.4115653 0,15.2217348 0,13.7582253 L0,6.65244266 C0,5.18983049 1.21854436,4 2.71615155,4 L15.2833998,4 Z M15.2833998,5.24366899 L2.71615155,5.24366899 C1.90408775,5.24366899 1.24366899,5.87537388 1.24366899,6.65244266 L1.24366899,13.7577767 C1.24366899,14.5348455 1.90408775,15.1678963 2.71615155,15.1678963 L5.21111665,15.1678963 C5.34322836,15.1678963 5.46566028,15.208936 5.56633167,15.2790112 C5.65811324,15.3327307 5.73503072,15.4106856 5.78853439,15.5052841 L7.36645065,18.270339 L8.9443669,15.5052841 C9.02979254,15.3555645 9.16759638,15.2545059 9.32137433,15.2125498 C9.39105437,15.1830932 9.4678626,15.1678963 9.54825524,15.1678963 L15.2833998,15.1678963 C16.0959123,15.1678963 16.756331,14.5352941 16.756331,13.7577767 L16.756331,6.65244266 C16.756331,5.87537386 16.0954636,5.24366897 15.2833998,5.24366899 Z M8.6836989,8.96704884 C9.37031053,8.96704884 9.92691924,9.52365755 9.92691924,10.2102692 C9.92691924,10.8968808 9.37031053,11.4534895 8.6836989,11.4534895 C7.99708726,11.4534895 7.44047855,10.8968808 7.44047855,10.2102692 C7.44047855,9.52365755 7.99708726,8.96704884 8.6836989,8.96704884 Z M4.33175474,8.96704884 C4.78162462,8.95850325 5.20102726,9.1936157 5.42846531,9.58185258 C5.65590335,9.97008946 5.65590335,10.4508976 5.42846531,10.8391345 C5.20102726,11.2273713 4.78162462,11.4624838 4.33175474,11.4539382 C3.65422429,11.441068 3.11170585,10.8881462 3.11170585,10.2104935 C3.11170585,9.53284084 3.65422429,8.97991901 4.33175474,8.96704884 Z M13.0356431,8.96704884 C13.7223273,8.96704884 14.2790644,9.52358499 14.2793121,10.2102692 C14.2664416,10.8877994 13.7135199,11.4303176 13.0358674,11.4303176 C12.3582149,11.4303176 11.8052932,10.8877994 11.7924227,10.2102692 C11.7924227,9.88054666 11.9234045,9.5643287 12.1565535,9.33117965 C12.3897026,9.09803061 12.7059205,8.96704884 13.0356431,8.96704884 Z"
                    id="message-icon"></path>
            </g>
        </g>
    </g>
</svg>