
<svg width="19px" height="21.2106428px" viewBox="0 0 19 21.2106428" version="1.1" xmlns="http://www.w3.org/2000/svg" xmlns:xlink="http://www.w3.org/1999/xlink">
    <g id="Icons" stroke="none" stroke-width="1" fill="none" fill-rule="evenodd">
        <g id="meta" fill="currentColor" fill-rule="nonzero">
            <path d="M8.43920009,1.46757797 L2.20586681,4.6816982 C1.46378846,5.06449155 0.999772158,5.81552891 0.999999992,6.63346346 L0.999999992,14.7888175 C0.999999992,15.6065538 1.46396831,16.3573301 2.20586681,16.7400307 L8.43920009,19.954151 C9.10274876,20.2964356 9.89725139,20.2964356 10.5608001,19.954151 L16.7941333,16.7400307 C17.5360318,16.3573301 18,15.6065538 18,14.7888175 L18,6.63346346 C18.000228,5.81552891 17.5362117,5.06449155 16.7941333,4.6816982 L10.5608001,1.46757797 C9.89725139,1.12529329 9.10274876,1.12529329 8.43920009,1.46757797 Z M7.62849998,0.464821401 C8.79920203,-0.154940467 10.2007979,-0.154940467 11.3715,0.464821401 L16.8715,3.3763214 C18.1809262,4.06952293 19,5.42972582 19,6.91132139 L19,14.2993214 C19,15.780917 18.1809262,17.1411199 16.8715,17.8343214 L11.3715,20.7458214 C10.2007979,21.3655833 8.79920203,21.3655833 7.62849998,20.7458214 L2.1285,17.8343214 C0.819073766,17.1411199 0,15.780917 0,14.2993214 L0,6.9118214 C0,5.43022583 0.819073759,4.07002292 2.1285,3.37682139 L7.62849998,0.464821401 Z" id="Shape"></path>
            <path d="M8.52849998,8.92182139 L5.4855,7.23132139 C5.17258822,7.04907539 4.7856002,7.05023136 4.47378277,7.2343435 C4.16196534,7.41845563 3.97404294,7.75675466 3.98249021,8.11877128 C3.99093749,8.4807879 4.19443447,8.80995357 4.51449998,8.97932139 L7.55749999,10.6703214 C8.76555288,11.3414295 10.2344471,11.3414295 11.4425,10.6703214 L14.4855,8.97932139 C14.8055655,8.80995357 15.0090625,8.4807879 15.0175098,8.11877128 C15.025957,7.75675466 14.8380346,7.41845563 14.5262172,7.2343435 C14.2143998,7.05023136 13.8274118,7.04907539 13.5145,7.23132139 L10.4715,8.92182139 C9.86734369,9.25756064 9.1326563,9.25756064 8.52849998,8.92182139 Z" id="Path"></path>
            <path d="M8.5,11.1053214 L8.5,15.1053214 C8.5,15.6576061 8.94771525,16.1053214 9.5,16.1053214 C10.0522847,16.1053214 10.5,15.6576061 10.5,15.1053214 L10.5,11.1053214 C10.5,10.5530366 10.0522847,10.1053214 9.5,10.1053214 C8.94771525,10.1053214 8.5,10.5530366 8.5,11.1053214 L8.5,11.1053214 Z" id="Path"></path>
        </g>
    </g>
</svg>