
<svg width="17.28px" height="24px" viewBox="0 0 17.28 24" version="1.1" xmlns="http://www.w3.org/2000/svg" xmlns:xlink="http://www.w3.org/1999/xlink">
    <g id="Page-1" stroke="none" stroke-width="1" fill="none" fill-rule="evenodd">
        <g id="1080P" transform="translate(-51, -658)" fill="currentColor" fill-rule="nonzero">
            <path d="M59.64,682 C57.75,680.245 57.82725,678.2575 57.82725,678.2575 L61.45275,678.2575 C61.45275,678.2575 61.53,680.245 59.64,682 Z M59.64,659.9875 C58.04475,662.095 54.94725,666.8815 54.94725,672.28 C54.94725,673.8415 55.23975,675.1495 55.536,676.07275 L63.744,676.07275 C64.04025,675.15025 64.33275,673.8415 64.33275,672.28 C64.33275,666.8815 61.23525,662.095 59.64,659.989 L59.64,659.9875 Z M65.58975,672.27925 C65.58975,675.835 64.227,678.18175 64.227,678.18175 L62.769,677.329 L56.511,677.329 L55.053,678.18175 C55.053,678.18175 53.69025,675.835 53.69025,672.27925 C53.69025,664.44625 59.63775,658.00225 59.64,658 C59.64225,658.00225 65.58975,664.44625 65.58975,672.27925 Z M66.41325,674.614 C66.41325,675.97675 65.808,677.45875 65.391,678.08425 L68.28,678.08425 L67.95975,676.11925 L66.41325,674.614 L66.41325,674.614 Z M51.32025,676.12 L51,678.085 L53.889,678.085 C53.47125,677.46025 52.86675,675.9775 52.86675,674.61475 L51.32025,676.12 Z M58.50675,670.44775 C58.4070729,670.43931 58.3104646,670.484687 58.2533164,670.56679 C58.1961683,670.648893 58.1871625,670.755247 58.2296914,670.84579 C58.2722204,670.936333 58.3598229,670.99731 58.4595,671.00575 C58.6135874,671.018798 58.7490773,670.904462 58.762125,670.750375 C58.7751727,670.596288 58.6608374,670.460798 58.50675,670.44775 L58.50675,670.44775 Z M59.40225,670.44775 C59.3025729,670.43931 59.2059646,670.484687 59.1488164,670.56679 C59.0916683,670.648893 59.0826625,670.755247 59.1251914,670.84579 C59.1677204,670.936333 59.2553229,670.99731 59.355,671.00575 C59.5090874,671.018798 59.6445773,670.904462 59.657625,670.750375 C59.6706727,670.596288 59.5563374,670.460798 59.40225,670.44775 L59.40225,670.44775 Z M60.297,670.44775 C60.1429126,670.434702 60.0074227,670.549038 59.994375,670.703125 C59.9813273,670.857212 60.0956626,670.992702 60.24975,671.00575 C60.3494271,671.01419 60.4460354,670.968813 60.5031836,670.88671 C60.5603317,670.804607 60.5693375,670.698253 60.5268086,670.60771 C60.4842796,670.517167 60.3966771,670.45619 60.297,670.44775 Z M63.35475,673.98025 C63.353881,674.58681 62.9743543,675.128289 62.404476,675.336026 C61.8345977,675.543763 61.1956394,675.373552 60.8046266,674.909844 C60.4136138,674.446136 60.3537551,673.78761 60.65475,673.261 L60.294,672.76825 C59.5140403,673.110906 58.6067736,672.976841 57.95925,672.42325 L57.55575,672.77275 C57.6323559,673.131157 57.4747082,673.498928 57.1623127,673.690586 C56.8499173,673.882245 56.4506332,673.856158 56.1658301,673.625483 C55.8810271,673.394807 55.7725705,673.009651 55.8951579,672.664258 C56.0177453,672.318865 56.3447481,672.088263 56.71125,672.08875 C56.81475,672.08875 56.913,672.10975 57.00525,672.14425 L57.43425,671.77075 C57.0254134,671.00505 57.1010367,670.07119 57.62775,669.38125 L57.177,668.89075 C57.144,668.89525 57.11175,668.90125 57.0795,668.90125 C56.7672725,668.901999 56.4886474,668.705404 56.3846813,668.410993 C56.2807153,668.116582 56.3741013,667.788618 56.6175617,667.593135 C56.8610222,667.397652 57.2014164,667.377319 57.4664162,667.54243 C57.7314161,667.707541 57.8631796,668.022057 57.795,668.32675 L58.25025,668.82175 C58.9372258,668.402898 59.7972091,668.38912 60.49725,668.78575 L60.882,668.401 C60.7090833,667.897484 60.90644,667.341244 61.3580384,667.059309 C61.8096369,666.777375 62.3960431,666.844308 62.7724926,667.220757 C63.1489421,667.597207 63.2158754,668.183613 62.9339406,668.635212 C62.6520057,669.08681 62.0957659,669.284167 61.59225,669.11125 L61.239,669.46375 C61.8126232,670.291951 61.7559441,671.402738 61.101,672.16825 L61.43025,672.61675 C61.5845908,672.561742 61.7471508,672.533339 61.911,672.53275 C62.7089673,672.534817 63.35475,673.18228 63.35475,673.98025 L63.35475,673.98025 Z M59.40225,672.481 C60.035599,672.506867 60.6336405,672.189049 60.9665944,671.649659 C61.2995483,671.110269 61.3156204,670.433214 61.0086354,669.878633 C60.7016504,669.324051 60.119363,668.978215 59.4855,668.974 C58.5283594,668.967636 57.7427951,669.729688 57.7200801,670.68658 C57.6973652,671.643472 58.4458856,672.441941 59.40225,672.481 L59.40225,672.481 Z" id="rocket-mq"></path>
        </g>
    </g>
</svg>