<svg width="18px" height="19px" viewBox="0 0 18 19" version="1.1" xmlns="http://www.w3.org/2000/svg" fill="currentColor"
    xmlns:xlink="http://www.w3.org/1999/xlink">
    <g id="runtime-1" stroke-width="1" fill-rule="evenodd">
        <g id="runtime-2" transform="translate(-30, -226)">
            <g id="runtime-3" transform="translate(30, 226)">
                <path
                    d="M17.8944966,3.60612983 L16.1907383,1.08573252 C15.7301411,0.404322276 14.9864646,0 14.1940268,0 L3.75744966,0 C2.95308725,0 2.19986577,0.41659108 1.7414094,1.11488113 L0.101073826,3.61293826 C0.0352626406,3.71307555 0,3.8320807 0,3.95399828 L0,14.4123918 C0,16.9459804 1.94375839,19 4.34134228,19 L13.6586577,19 C16.0562416,19 18,16.9459804 18,14.4123918 L18,3.95399828 C18,3.82931882 17.9631544,3.70761806 17.8944966,3.60612983 Z M2.67181208,1.79700115 C2.91874638,1.42102052 3.32435779,1.19679511 3.75744966,1.19679511 L14.1940268,1.19679511 L14.3351678,1.20466736 L14.4732886,1.22828412 C14.794459,1.301672 15.0782236,1.49889935 15.2691946,1.78146941 L16.7822819,4.01931669 L1.21167785,4.01931669 L2.67181208,1.79700115 L2.67181208,1.79700115 Z M13.6586577,17.8032049 L4.34134228,17.8032049 L4.16536913,17.7980986 L3.99181208,17.7832051 C2.38409396,17.5991646 1.13255034,16.1600318 1.13255034,14.412179 L1.13154362,5.21568627 L16.8662416,5.21568627 L16.8674497,14.412179 C16.8674497,16.2851368 15.4308725,17.8032049 13.6586577,17.8032049 L13.6586577,17.8032049 Z"
                    id="runtime-shape" stroke-width="0.3" fill-rule="nonzero"></path>
                <text id="runtime-text" font-family="AvenirNext-DemiBold, Avenir Next" font-size="10" font-weight="500">
                    <tspan x="3" y="15">RT</tspan>
                </text>
            </g>
        </g>
    </g>
</svg>