<svg width="17px" height="20px" viewBox="0 0 17 20" version="1.1" xmlns="http://www.w3.org/2000/svg"
    xmlns:xlink="http://www.w3.org/1999/xlink">
    <g id="Page-1" stroke="none" stroke-width="1" fill="currentColor" fill-rule="evenodd">
        <g id="1080P" transform="translate(-32, -393)" fill-rule="nonzero">
            <g id="Group-2" transform="translate(32, 391)">
                <g id="工具-盾牌" transform="translate(0, 2)">
                    <path
                        d="M16.1013892,3.06197655 L9.03552286,0.10720268 C8.86424227,0.0357342267 8.68212113,0 8.5,0 C8.31787887,0 8.13575773,0.0357342267 7.96447714,0.10720268 L0.898610795,3.06197655 C0.324061982,3.30318258 -0.0380121755,3.89949749 0.00318189034,4.54271357 L0.475829593,11.9776661 C0.588571247,13.7375768 1.4449742,15.3567839 2.81738702,16.3975433 L6.80887519,19.426019 C7.31187642,19.8079285 7.90593821,20 8.5,20 C9.09406179,20 9.68812358,19.8079285 10.1911248,19.426019 L14.182613,16.3975433 C15.5550258,15.3567839 16.4114288,13.7375768 16.5241704,11.9776661 L16.9968181,4.54271357 C17.0380122,3.89949749 16.675938,3.30094919 16.1013892,3.06197655 Z M15.0932186,11.879397 C15.0086624,13.2037968 14.3690703,14.4120603 13.3370506,15.1937465 L9.3455624,18.2222222 C9.09839801,18.4098269 8.80570333,18.508096 8.5,18.508096 C8.19429667,18.508096 7.90160199,18.4098269 7.6544376,18.2222222 L3.66294943,15.1937465 C2.63092967,14.4120603 1.99133759,13.2037968 1.90678135,11.879397 L1.43413365,4.44444444 L8.5,1.48967058 L15.5658663,4.44444444 L15.0932186,11.879397 Z M7.78235601,7.01954216 L7.78235601,9.25516471 L5.63159215,9.25516471 C5.23482825,9.25516471 4.91394816,9.5879397 4.91394816,10.0011167 C4.91394816,10.4142937 5.23482825,10.7470687 5.63159215,10.7470687 L7.78235601,10.7470687 L7.78235601,12.9826912 C7.78235601,13.3936348 8.1032361,13.7286432 8.5,13.7286432 C8.8967639,13.7286432 9.21764399,13.3958682 9.21764399,12.9826912 L9.21764399,10.7448353 L11.3684078,10.7448353 C11.7651717,10.7448353 12.0860518,10.4120603 12.0860518,9.99888331 C12.0860518,9.58570631 11.7651717,9.25293132 11.3684078,9.25293132 L9.21764399,9.25293132 L9.21764399,7.01954216 C9.21764399,6.60859855 8.8967639,6.27359017 8.5,6.27359017 C8.1032361,6.27359017 7.78235601,6.60636516 7.78235601,7.01954216 Z"
                        id="Shape"></path>
                </g>
            </g>
        </g>
    </g>
</svg>