<svg width="18px" height="18px" viewBox="0 0 18 18" version="1.1" xmlns="http://www.w3.org/2000/svg"
    xmlns:xlink="http://www.w3.org/1999/xlink">
    <g id="Page-1" stroke="none" stroke-width="1" fill="currentColor" fill-rule="evenodd">
        <g id="1080P" transform="translate(-32, -510)"  fill-rule="nonzero">
            <g id="配置管理" transform="translate(32, 510)">
                <path
                    d="M9.64319149,9.08037302 L9.64319149,0.642838999 C9.64319149,0.287818866 9.3523129,0 8.99727846,0 C8.64224401,0 8.35136542,0.287818866 8.3513654,0.642838999 L8.3513654,9.08160674 C7.24823299,9.36790161 6.42654452,10.3740339 6.42654452,11.5713923 C6.42654452,12.770565 7.24663637,13.777931 8.35702622,14.0624841 C8.35347155,14.089168 8.35158095,14.1160473 8.3513654,14.142966 L8.3513654,17.357161 C8.3513654,17.7121811 8.64224399,18 8.99727846,18 C9.35231292,18 9.64319149,17.7121811 9.64319149,17.357161 L9.64319149,14.142966 C9.64268256,14.1164684 9.64054971,14.090027 9.63680495,14.0637904 C10.7495898,13.7807613 11.5734555,12.7720164 11.5734555,11.5715374 C11.5736732,10.3723647 10.7535813,9.3650713 9.64319149,9.08037302 Z M9.90881417,12.4804964 C9.4750655,12.9142407 8.79531299,12.9811987 8.28526512,12.6404216 C7.77521726,12.2996446 7.57692904,11.6460434 7.81166534,11.0793334 C8.04640164,10.5126235 8.64878532,10.1906409 9.25042347,10.310297 C9.85206162,10.4299531 10.2854084,10.9579219 10.2854084,11.5713197 C10.28637,11.9125362 10.1507616,12.2399536 9.90881417,12.480569 L9.90881417,12.4804964 Z M3.20721229,2.65183788 C3.21083734,2.6251826 3.21280064,2.59832764 3.21309082,2.57142858 L3.21309082,0.642838999 C3.21309082,0.288129465 2.92553033,0.00058057236 2.57080649,0.00058057236 C2.21608266,0.00058057236 1.92852217,0.288129465 1.92852217,0.642838999 L1.92852217,2.57142858 C1.92802185,2.59866789 1.92923381,2.62591172 1.9321509,2.65299902 C0.821761041,2.9374796 0,3.94477304 0,5.14409087 C0,6.3434087 0.821906213,7.3502667 1.93229605,7.63511013 C1.92945592,7.66137809 1.92821987,7.68779476 1.92859476,7.71421314 L1.92859476,17.357161 C1.92859475,17.5866178 2.05101345,17.7986447 2.24973691,17.9133731 C2.44846038,18.0281016 2.69329778,18.0281016 2.89202124,17.9133731 C3.09074471,17.7986447 3.21316341,17.5866178 3.2131634,17.357161 L3.2131634,7.71428572 C3.21287169,7.68819218 3.21100555,7.66214001 3.20757516,7.63627128 C4.3202874,7.35324213 5.14328222,6.34449726 5.14328222,5.14409087 C5.14328222,3.94368447 4.32006966,2.93472187 3.20721229,2.65183788 Z M3.47994725,6.05326755 C3.04619857,6.48701182 2.36644606,6.55396979 1.8563982,6.21319274 C1.34635034,5.87241568 1.14806214,5.21881446 1.38279845,4.65210452 C1.61753476,4.08539459 2.21991845,3.76341206 2.82155659,3.88306813 C3.42319473,4.0027242 3.85654127,4.53069308 3.85654127,5.14409087 C3.85748371,5.4852822 3.72187681,5.81266989 3.47994725,6.05326755 L3.47994725,6.05326755 Z M18,5.14409087 C18,3.94324904 17.1753359,2.93472187 16.0622608,2.65183788 C16.0650817,2.62513245 16.0662452,2.5982779 16.0657444,2.57142858 L16.0657444,0.642838999 C16.0657444,0.288129465 15.7781839,0.00058057236 15.4234601,0.00058057236 C15.0687363,0.00058057236 14.7811758,0.288129465 14.7811758,0.642838999 L14.7811758,2.57142858 C14.7814658,2.59871836 14.7834777,2.62596265 14.7871995,2.65299902 C13.6768096,2.9374796 12.8562097,3.94477304 12.8562097,5.14409087 C12.8562097,6.3434087 13.6763016,7.35062957 14.7866914,7.63518269 C14.7831428,7.66181856 14.7812522,7.68864914 14.7810306,7.71551943 L14.7810306,17.357161 C14.7810306,17.7118705 15.0685911,17.9994194 15.4233149,17.9994194 C15.7780388,17.9994194 16.0655993,17.7118705 16.0655993,17.357161 L16.0655993,7.71551943 C16.0660965,7.68908425 16.0649817,7.66264334 16.0622608,7.63634384 C17.1754085,7.35338728 18,6.34486012 18,5.14409087 L18,5.14409087 Z M16.3376085,6.05319496 C15.9038407,6.48686883 15.2241219,6.55375384 14.7141382,6.21294605 C14.2041546,5.87213826 14.0059423,5.21855657 14.2407193,4.65190276 C14.4754963,4.08524895 15.0778746,3.76334263 15.679466,3.88304753 C16.2810575,4.00275243 16.714312,4.53072935 16.7142747,5.14409087 C16.7151789,5.48526755 16.5795468,5.81262699 16.3376085,6.05319496 L16.3376085,6.05319496 Z"
                    id="Shape"></path>
            </g>
        </g>
    </g>
</svg>