<svg width="18px" height="18px" viewBox="0 0 18.000009 18.0000097" version="1.1" xmlns="http://www.w3.org/2000/svg"
    fill="currentColor" xmlns:xlink="http://www.w3.org/1999/xlink">
    <g id="Page-1" stroke-width="1">
        <g id="1080P" transform="translate(-30, -272)">
            <g id="Topic" transform="translate(30, 272)">
                <path
                    d="M8.24107841,9.67498971 L9.57892602,9.67498971 L9.75893976,8.32499212 L8.42109215,8.32499212 L8.24107841,9.67498971 L8.24107841,9.67498971 Z M8.06108577,11.0249873 L7.86915408,12.4640847 C7.83732177,12.7031473 7.68036913,12.9070679 7.45741871,12.9990316 C7.23446828,13.0909953 6.97939154,13.0570306 6.78827342,12.9099318 C6.5971553,12.7628329 6.4990312,12.5249476 6.53086351,12.285885 L6.6989382,11.0249873 L5.62501513,11.0249873 C5.25222359,11.0249873 4.95001634,10.72278 4.95001634,10.3499885 C4.95001634,9.97719696 5.25222359,9.67498971 5.62501513,9.67498971 L6.87893085,9.67498971 L7.05894459,8.32499212 L5.62501513,8.32499212 C5.25222359,8.32499212 4.95001634,8.02278487 4.95001634,7.64999333 C4.95001634,7.27720179 5.25222359,6.97499454 5.62501513,6.97499454 L7.23893724,6.97499454 L7.43086892,5.53589712 C7.48007741,5.16633838 7.81955531,4.90664319 8.18911405,4.95585167 C8.55867279,5.00506016 8.81836798,5.34453806 8.7691595,5.7140968 L8.6010848,6.97499454 L9.9389324,6.97499454 L10.1308641,5.53589712 C10.1800726,5.1663384 10.5195505,4.90664323 10.8891092,4.95585171 C11.2586679,5.00506019 11.5183631,5.34453807 11.4691547,5.7140968 L11.30108,6.97499454 L12.375003,6.97499454 C12.7477946,6.97499454 13.0500018,7.27720179 13.0500018,7.64999333 C13.0500018,8.02278487 12.7477946,8.32499212 12.375003,8.32499212 L11.1210873,8.32499212 L10.9410736,9.67498971 L12.375003,9.67498971 C12.7477946,9.67498971 13.0500018,9.97719696 13.0500018,10.3499885 C13.0500018,10.72278 12.7477946,11.0249873 12.375003,11.0249873 L10.7610809,11.0249873 L10.5691492,12.4640847 C10.5199408,12.8336435 10.1804629,13.0933386 9.81090412,13.0441302 C9.44134538,12.9949217 9.18165019,12.6554438 9.23085867,12.285885 L9.39893337,11.0249873 L8.06108577,11.0249873 Z M1.52372247,14.0476319 C1.29152289,13.6534326 1.13941613,13.3890651 1.06381626,13.2479692 C0.36341333,11.9417241 -0.00209642305,10.4821637 9.04486185e-06,9 C9.04486185e-06,4.02953185 4.02955002,0 9.00000904,0 C13.9704682,0 18.000009,4.02953185 18.000009,9 C18.000009,13.97045 13.9704682,18 9.00000904,18 C7.37195821,18.0023987 5.77401394,17.5611947 4.37784939,16.7237701 C4.23718366,16.6404596 4.09617097,16.5577364 3.95481499,16.4756025 L1.75252597,17.0763515 C1.2485339,17.2136082 0.786370666,16.7512341 0.923859483,16.2474529 L1.52370138,14.0476319 L1.52372247,14.0476319 Z M2.90116297,14.1275138 L2.53712769,15.4628723 L3.87248623,15.098837 C4.0470196,15.0511696 4.23338308,15.0755641 4.38976734,15.1665478 C4.61779386,15.2988028 4.84527042,15.4320037 5.07219112,15.5661471 C6.2586147,16.2777182 7.61656109,16.6524282 9.00000908,16.6499961 C13.2250585,16.6499961 16.6500024,13.2250404 16.6500024,8.99999092 C16.6500024,4.77494145 13.2250585,1.34999758 9.00000908,1.34999758 C4.77495962,1.34999758 1.35001575,4.77494145 1.35001575,8.99999092 C1.35001575,10.2779957 1.66321519,11.5091935 2.25339616,12.6098845 C2.33169602,12.7556842 2.52609568,13.0913906 2.83073107,13.6061827 C2.92375352,13.7632804 2.9491707,13.95136 2.90118407,14.1275138 L2.90116297,14.1275138 Z"
                    id="Shape"></path>
            </g>
        </g>
    </g>
</svg>