<svg width="19px" height="14px" viewBox="0 0 19 14" version="1.1" xmlns="http://www.w3.org/2000/svg"
    xmlns:xlink="http://www.w3.org/1999/xlink">
    <g id="Page-1" stroke="none" stroke-width="1" fill="currentColor" fill-rule="evenodd">
        <g id="1080P" transform="translate(-32, -546)" fill-rule="nonzero">
            <g id="用户管理" transform="translate(32, 546)">
                <path
                    d="M14.8098508,7.00954477 C15.5727642,6.37522519 16.0563774,5.45687276 16.0563774,4.43300489 C16.0563774,2.65723724 14.6418359,1.18288387 12.7660688,1.00334402 C12.3863509,0.967149772 12.0427139,1.22889351 12.0035901,1.58838217 C11.964901,1.94787083 12.2433318,2.26891587 12.6254406,2.30531461 C13.7882858,2.41676019 14.6650928,3.33122736 14.6650928,4.43300489 C14.6650928,5.52312664 13.7982841,6.43657138 12.6491322,6.55803683 C12.3961319,6.58462018 12.2007304,6.74125744 12.1031383,6.9447223 C12.1022689,6.9463582 12.1013995,6.94778961 12.1005301,6.94922102 C12.0735782,7.00647746 12.0583634,7.06577878 12.0498865,7.12957881 C12.0455395,7.15329934 12.0320635,7.17354358 12.0307594,7.19808206 C12.0296726,7.21628142 12.0383668,7.23202695 12.0388015,7.24981734 C12.0394535,7.26065517 12.0346718,7.27026607 12.0359759,7.2811039 C12.0379321,7.29746288 12.0474957,7.31055007 12.050756,7.32629559 C12.0981392,7.62750537 12.3515742,7.86982281 12.6871692,7.88740872 C15.2802054,8.02216584 17.3970184,9.9619323 17.6113297,12.3996253 C17.6413246,12.7415281 17.9456205,13 18.3038203,13 C18.3229475,13 18.342292,12.9993865 18.3618539,12.9977506 C18.7446147,12.9681 19.0291314,12.6519626 18.9976151,12.291656 C18.7856947,9.88197777 17.1007645,7.86184781 14.8098508,7.00954477 L14.8098508,7.00954477 Z"
                    id="Path"></path>
                <path
                    d="M9.38875186,7.06387855 C10.2667355,6.33624223 10.8315087,5.21966845 10.8315087,3.96740923 C10.8315087,1.77976467 9.11253005,0 7,0 C4.88746995,0 3.16849134,1.77976467 3.16849134,3.96740923 C3.16849134,5.21946255 3.7332645,6.33624223 4.61124814,7.06387855 C2.10795074,8.01635325 0.232267463,10.4084525 0.00218205633,13.2864662 C-0.0266531934,13.649049 0.233659509,13.96757 0.583858645,13.997425 C0.943006652,14.0295447 1.24170007,13.7573503 1.27053532,13.3951793 C1.51513778,10.3330946 4.03195792,7.93440666 7,7.93440666 C9.96804208,7.93440666 12.4848622,10.3330946 12.7294647,13.3951793 C12.7569079,13.7394373 13.0353172,13.9996898 13.3630447,13.9996898 C13.3805447,13.9996898 13.3982436,13.9990721 13.4161414,13.997425 C13.7663405,13.96757 14.0266532,13.649049 13.9978179,13.2864662 C13.7677325,10.4084525 11.8920493,8.01635325 9.38875186,7.06387855 Z M4.4412196,3.96740923 C4.4412196,2.5065774 5.5890614,1.31773413 7,1.31773413 C8.4109386,1.31773413 9.5587804,2.5063715 9.5587804,3.96740923 C9.5587804,5.42844695 8.4109386,6.61667252 7,6.61667252 C5.5890614,6.61667252 4.4412196,5.42824105 4.4412196,3.96740923 Z"
                    id="Shape"></path>
            </g>
        </g>
    </g>
</svg>